<?xml version="1.0" encoding="UTF-8" standalone="no"?>
<svg
   xmlns:osb="http://www.openswatchbook.org/uri/2009/osb"
   xmlns:dc="http://purl.org/dc/elements/1.1/"
   xmlns:cc="http://creativecommons.org/ns#"
   xmlns:rdf="http://www.w3.org/1999/02/22-rdf-syntax-ns#"
   xmlns:svg="http://www.w3.org/2000/svg"
   xmlns="http://www.w3.org/2000/svg"
   xmlns:sodipodi="http://sodipodi.sourceforge.net/DTD/sodipodi-0.dtd"
   xmlns:inkscape="http://www.inkscape.org/namespaces/inkscape"
   viewBox="0 0 999.99998 700.00001"
   id="svg2"
   version="1.1"
   inkscape:version="0.91 r13725"
   sodipodi:docname="character.svg"
   width="1000"
   height="700">
  <metadata
     id="metadata72">
    <rdf:RDF>
      <cc:Work
         rdf:about="">
        <dc:format>image/svg+xml</dc:format>
        <dc:type
           rdf:resource="http://purl.org/dc/dcmitype/StillImage" />
        <dc:title />
      </cc:Work>
    </rdf:RDF>
  </metadata>
  <sodipodi:namedview
     pagecolor="#ffffff"
     bordercolor="#666666"
     borderopacity="1"
     objecttolerance="10"
     gridtolerance="10"
     guidetolerance="10"
     inkscape:pageopacity="0"
     inkscape:pageshadow="2"
     inkscape:window-width="1366"
     inkscape:window-height="715"
     id="namedview70"
     showgrid="false"
     inkscape:zoom="0.44851479"
     inkscape:cx="323.42328"
     inkscape:cy="181.62928"
     inkscape:window-x="-8"
     inkscape:window-y="-8"
     inkscape:window-maximized="1"
     inkscape:current-layer="bubbles"
     showguides="false" />
  <defs
     id="defs4">
    <linearGradient
       osb:paint="solid"
       id="linearGradient6">
      <stop
         offset="0"
         id="stop8" />
    </linearGradient>
  </defs>
  <path
     d="m 577.10402,421.33491 a 78.237798,75.881238 0 1 1 -156.47559,0 78.237798,75.881238 0 1 1 156.47559,0 z"
     id="path10"
     inkscape:connector-curvature="0"
     style="fill:#ffffff;fill-rule:evenodd;stroke:#ffffff;stroke-width:0.71009785;stroke-linejoin:round;stroke-opacity:0.99607999" />
  <path
     d="m 568.07357,444.09025 a 64.569748,55.143504 0 1 1 -1.1986,-10.57562"
     id="body"
     inkscape:connector-curvature="0"
     style="fill:#803300;fill-rule:evenodd;stroke:#ffffff;stroke-width:0.71009785;stroke-linejoin:round;stroke-opacity:0.99607999" />
  <g
     id="eyes"
     transform="matrix(0.89628349,0,0,0.89628349,68.36839,39.398935)">
    <path
       d="m 561.29548,314.65247 a 38.913012,70.989959 0 1 1 -0.47006,-11.00089"
       id="path20"
       inkscape:connector-curvature="0"
       style="fill:#803300;fill-rule:evenodd;stroke:#7b7b7b;stroke-width:0.792;stroke-linejoin:round;stroke-miterlimit:4;stroke-dasharray:none;stroke-opacity:0.99607999" />
    <path
       d="m 474.00412,318.85933 a 38.913012,70.989959 0 1 1 -0.47007,-11.00096"
       id="path18"
       inkscape:connector-curvature="0"
       style="fill:#803300;fill-rule:evenodd;stroke:#7b7b7b;stroke-width:0.79226929;stroke-linejoin:round;stroke-opacity:0.99607843" />
    <path
       d="m 458.22858,318.33344 a 25.240876,46.274936 0 1 1 -4.2034,-25.57003 l -21.03746,25.57003 z"
       id="path22"
       inkscape:connector-curvature="0"
       style="fill-rule:evenodd;stroke:#ffffff;stroke-width:0.79226929;stroke-linejoin:round;stroke-opacity:0.99607999" />
    <path
       d="m 548.67506,313.07491 a 25.240876,46.274936 0 1 1 -4.20342,-25.57002 l -21.03747,25.57002 z"
       id="path24"
       inkscape:connector-curvature="0"
       style="fill-rule:evenodd;stroke:#ffffff;stroke-width:0.79226929;stroke-linejoin:round;stroke-opacity:0.99607999" />
  </g>
  <g
     id="legs"
     transform="matrix(0.89628349,0,0,0.89628349,75.362568,8.424718)">
    <path
       style="fill:#803300;fill-rule:evenodd;stroke:#ffffff;stroke-width:0.79226929;stroke-linejoin:round;stroke-opacity:0.99607999"
       inkscape:connector-curvature="0"
       id="path26"
       d="m 421.48165,584.61806 a 33.128651,65.731449 51.618121 1 1 7.78201,-6.68072" />
    <path
       style="fill:#803300;fill-rule:evenodd;stroke:#ffffff;stroke-width:0.7541163;stroke-linejoin:round;stroke-opacity:0.99607999"
       inkscape:connector-curvature="0"
       id="path28"
       d="m 570.5643,551.51034 a 60.860902,32.416745 59.949112 1 1 -4.85417,-8.18556" />
  </g>
  <g
     id="hands"
     transform="matrix(0.89628349,0,0,0.89628349,75.362568,8.424718)">
    <g
       id="g30"
       transform="matrix(0.79226929,0,0,0.79226929,444.55644,60.912463)">
      <path
         style="fill:#803300;fill-rule:evenodd;stroke:#ffffff;stroke-linejoin:round;stroke-opacity:0.99607999"
         inkscape:connector-curvature="0"
         id="path32"
         d="m 205.75577,575.14154 c 0,15.02925 -12.18361,27.21286 -27.21286,27.21286 -15.02925,0 -27.21286,-12.18361 -27.21286,-27.21286 0,-15.02925 12.18361,-27.21286 27.21286,-27.21286 13.39126,0 24.79221,9.74256 26.88007,22.97005" />
    </g>
    <g
       id="g36"
       transform="matrix(0.79226929,0,0,0.79226929,242.62945,11.482461)">
      <path
         style="fill:#803300;fill-rule:evenodd;stroke:#ffffff;stroke-linejoin:round;stroke-opacity:0.99607999"
         inkscape:connector-curvature="0"
         id="path38"
         d="m 205.75577,575.14154 c 0,15.02925 -12.18361,27.21286 -27.21286,27.21286 -15.02925,0 -27.21286,-12.18361 -27.21286,-27.21286 0,-15.02925 12.18361,-27.21286 27.21286,-27.21286 13.39126,0 24.79221,9.74256 26.88007,22.97005" />
    </g>
  </g>
  <path
     style="fill:#ff6600;fill-rule:evenodd;stroke:#ff6600;stroke-width:0.71009785;stroke-linejoin:round;stroke-opacity:1"
     inkscape:connector-curvature="0"
     id="bubble"
     d="m 677.02217,464.69562 a 11.31149,9.8975514 0 1 1 -0.13833,-1.54312" />
  <g
     id="bubbles">
    <path
       d="m 688.33365,342.62582 a 28.750038,32.049217 0 1 1 -0.35157,-4.99689"
       id="path48"
       inkscape:connector-curvature="0"
       style="fill:#ff6600;fill-rule:evenodd;stroke:#ff6600;stroke-width:0.71009785;stroke-linejoin:round;stroke-opacity:1" />
    <path
       style="fill:#ff6600;fill-rule:evenodd;stroke:#ff6600;stroke-width:0.71009785;stroke-linejoin:round;stroke-opacity:1"
       inkscape:connector-curvature="0"
       id="path42"
       d="m 640.27845,410.89123 a 21.209042,19.795108 0 1 1 -0.25936,-3.0863" />
    <path
       style="fill:#ff6600;fill-rule:evenodd;stroke:#ff6600;stroke-width:0.71009785;stroke-linejoin:round;stroke-opacity:1"
       inkscape:connector-curvature="0"
       id="path40"
       d="m 337.22507,426.04533 a 12.25411,11.31149 0 1 1 -0.14988,-1.7636" />
    <path
       d="m 708.98329,92.69883 a 29.221345,25.922158 0 1 1 -0.35734,-4.041512"
       id="path44"
       inkscape:connector-curvature="0"
       style="fill:#ff6600;fill-rule:evenodd;stroke:#ff6600;stroke-width:0.71009785;stroke-linejoin:round;stroke-opacity:1" />
    <path
       d="m 395.23766,196.07609 a 39.862507,30.678497 0 1 1 -0.48748,-4.78315"
       id="path52"
       inkscape:connector-curvature="0"
       style="fill:#ff6600;fill-rule:evenodd;stroke:#ffffff;stroke-width:0.6347912;stroke-linejoin:round;stroke-opacity:0.99607999" />
    <path
       d="m 607.26797,230.92486 a 15.081989,10.840177 0 1 1 -0.18443,-1.69011"
       id="path56"
       inkscape:connector-curvature="0"
       style="fill:#ff6600;fill-rule:evenodd;stroke:#ff6600;stroke-width:0.71009785;stroke-linejoin:round;stroke-opacity:1" />
    <path
       d="m 677.97018,187.54882 a 27.807413,30.163972 0 1 1 -0.34005,-4.7029"
       id="path64"
       inkscape:connector-curvature="0"
       style="fill:#ff6600;fill-rule:evenodd;stroke:#ff6600;stroke-width:0.71009785;stroke-linejoin:round;stroke-opacity:1" />
    <path
       d="m 391.40707,357.2365 a 33.934471,37.233657 0 1 1 -0.41498,-5.8052"
       id="path66"
       inkscape:connector-curvature="0"
       style="fill:#ff6600;fill-rule:evenodd;stroke:#ffffff;stroke-width:0.71009785;stroke-linejoin:round;stroke-opacity:0.99607999" />
    <path
       d="m 464.47031,159.25485 a 20.266421,20.266421 0 1 1 -0.24784,-3.15978"
       id="path60"
       inkscape:connector-curvature="0"
       style="fill:#ff6600;fill-rule:evenodd;stroke:#ff6600;stroke-width:0.71009785;stroke-linejoin:round;stroke-opacity:1" />
    <path
       style="fill:#ff6600;fill-rule:evenodd;stroke:#ff6600;stroke-width:0.71009785;stroke-linejoin:round;stroke-opacity:1"
       inkscape:connector-curvature="0"
       id="path68"
       d="m 341.05849,522.23527 a 13.196736,14.610675 0 1 1 -0.16139,-2.27802" />
    <path
       style="fill:#ff6600;fill-rule:evenodd;stroke:#ff6600;stroke-width:0.71009785;stroke-linejoin:round;stroke-opacity:1"
       inkscape:connector-curvature="0"
       id="path62"
       d="m 721.1763,303.83084 a 14.139364,11.31149 0 1 1 -0.17292,-1.7636" />
    <path
       style="fill:#ff6600;fill-rule:evenodd;stroke:#ff6600;stroke-width:0.71009785;stroke-linejoin:round;stroke-opacity:1"
       inkscape:connector-curvature="0"
       id="path58"
       d="m 601.61224,135.24847 a 43.360707,49.959079 0 1 1 -0.53026,-7.7892" />
    <path
       style="fill:#ff6600;fill-rule:evenodd;stroke:#ff6600;stroke-width:0.71009785;stroke-linejoin:round;stroke-opacity:1"
       inkscape:connector-curvature="0"
       id="path46"
       d="m 735.89937,417.1857 a 21.680354,23.094294 0 1 1 -0.26515,-3.60071" />
    <path
       style="fill:#ff6600;fill-rule:evenodd;stroke:#ff6600;stroke-width:0.71009785;stroke-linejoin:round;stroke-opacity:1"
       inkscape:connector-curvature="0"
       id="path34"
       d="m 385.75132,488.26122 a 19.795108,20.266421 0 1 1 -0.24208,-3.1598" />
    <path
       style="fill:#ff6600;fill-rule:evenodd;stroke:#ff6600;stroke-width:0.71009785;stroke-linejoin:round;stroke-opacity:1"
       inkscape:connector-curvature="0"
       id="path54"
       d="m 515.34145,188.96817 a 21.680354,21.209042 0 1 1 -0.26511,-3.30672" />
    <path
       d="m 396.77041,590.98931 a 21.680354,23.094294 0 1 1 -0.26515,-3.60072"
       id="path4188"
       inkscape:connector-curvature="0"
       style="fill:#ff6600;fill-rule:evenodd;stroke:#ff6600;stroke-width:0.71009785;stroke-linejoin:round;stroke-opacity:1" />
    <path
       style="fill:#ff6600;fill-rule:evenodd;stroke:#ff6600;stroke-width:0.71009785;stroke-linejoin:round;stroke-opacity:1"
       inkscape:connector-curvature="0"
       id="path4190"
       d="m 673.73106,571.89498 a 27.807413,30.163972 0 1 1 -0.34005,-4.70292" />
    <path
       d="m 599.11996,629.56495 a 19.795108,20.266421 0 1 1 -0.24207,-3.15979"
       id="path4192"
       inkscape:connector-curvature="0"
       style="fill:#ff6600;fill-rule:evenodd;stroke:#ff6600;stroke-width:0.71009785;stroke-linejoin:round;stroke-opacity:1" />
    <path
       style="fill:#ff6600;fill-rule:evenodd;stroke:#ff6600;stroke-width:0.71009785;stroke-linejoin:round;stroke-opacity:1"
       inkscape:connector-curvature="0"
       id="path4194"
       d="m 563.46382,584.18418 a 15.081989,10.840177 0 1 1 -0.18444,-1.6901" />
    <path
       d="m 480.42482,587.17382 a 19.795108,20.266421 0 1 1 -0.24207,-3.15979"
       id="path4196"
       inkscape:connector-curvature="0"
       style="fill:#ff6600;fill-rule:evenodd;stroke:#ff6600;stroke-width:0.71009785;stroke-linejoin:round;stroke-opacity:1" />
    <path
       d="m 388.09442,267.78515 a 12.25411,11.31149 0 1 1 -0.14987,-1.7636"
       id="path4198"
       inkscape:connector-curvature="0"
       style="fill:#ff6600;fill-rule:evenodd;stroke:#ff6600;stroke-width:0.71009785;stroke-linejoin:round;stroke-opacity:1" />
    <path
       d="m 414.5472,72.092722 a 14.139364,11.31149 0 1 1 -0.17292,-1.763598"
       id="path4200"
       inkscape:connector-curvature="0"
       style="fill:#ff6600;fill-rule:evenodd;stroke:#ff6600;stroke-width:0.71009785;stroke-linejoin:round;stroke-opacity:1" />
    <path
       d="m 372.75413,99.940511 a 27.807413,30.163972 0 1 1 -0.34006,-4.702907"
       id="path4202"
       inkscape:connector-curvature="0"
       style="fill:#ff6600;fill-rule:evenodd;stroke:#ff6600;stroke-width:0.71009785;stroke-linejoin:round;stroke-opacity:1" />
  </g>
</svg>
