<?xml version="1.0" encoding="UTF-8" standalone="no"?>
<!-- Created with Inkscape (http://www.inkscape.org/) -->

<svg
   xmlns:dc="http://purl.org/dc/elements/1.1/"
   xmlns:cc="http://creativecommons.org/ns#"
   xmlns:rdf="http://www.w3.org/1999/02/22-rdf-syntax-ns#"
   xmlns:svg="http://www.w3.org/2000/svg"
   xmlns="http://www.w3.org/2000/svg"
   xmlns:sodipodi="http://sodipodi.sourceforge.net/DTD/sodipodi-0.dtd"
   xmlns:inkscape="http://www.inkscape.org/namespaces/inkscape"
   width="1000"
   height="700"
   viewBox="0 0 1000 700.00001"
   id="svg2"
   version="1.1"
   inkscape:version="0.91 r13725"
   sodipodi:docname="loop.svg">
  <defs
     id="defs4" />
  <sodipodi:namedview
     id="base"
     pagecolor="#ffffff"
     bordercolor="#666666"
     borderopacity="1.0"
     inkscape:pageopacity="0.0"
     inkscape:pageshadow="2"
     inkscape:zoom="0.35"
     inkscape:cx="-77.142857"
     inkscape:cy="189.82026"
     inkscape:document-units="px"
     inkscape:current-layer="layer1"
     showgrid="false"
     units="px"
     inkscape:window-width="1366"
     inkscape:window-height="715"
     inkscape:window-x="-8"
     inkscape:window-y="-8"
     inkscape:window-maximized="1" />
  <metadata
     id="metadata7">
    <rdf:RDF>
      <cc:Work
         rdf:about="">
        <dc:format>image/svg+xml</dc:format>
        <dc:type
           rdf:resource="http://purl.org/dc/dcmitype/StillImage" />
        <dc:title />
      </cc:Work>
    </rdf:RDF>
  </metadata>
  <g
     inkscape:label="Layer 1"
     inkscape:groupmode="layer"
     id="layer1"
     transform="translate(0,-352.36216)">
    <path
       class="fil0"
       d="m 287.74946,476.3931 c 73.8872,-33.29093 -6.61895,-18.33697 34.81083,-7.8447 6.03059,1.5199 1.56894,-3.53011 -17.50347,16.32676 25.39717,-1.61796 35.00695,-27.65256 34.36957,-13.97335 -0.3432,7.40344 12.40438,-7.06024 26.6229,9.90393 -0.98058,1.56892 -46.87201,33.19287 -23.43601,9.51167 17.94473,-18.14084 -18.77821,15.93456 -58.59004,0.63739 -10.44325,-4.0204 -1.37283,-9.46266 3.72622,-14.5617 z"
       id="path10"
       style="clip-rule:evenodd;fill:#f76000;fill-rule:evenodd;stroke:#000000;stroke-width:0.39194554;stroke-miterlimit:4;stroke-dasharray:none;stroke-opacity:1;image-rendering:optimizeQuality;shape-rendering:geometricPrecision;text-rendering:geometricPrecision"
       inkscape:connector-curvature="0" />
    <path
       class="fil1"
       d="m 352.17399,422.01956 c -3.03983,6.91312 -15.34615,27.99574 -0.049,16.9151 -56.62885,61.67892 -16.52285,5.73645 -44.07735,20.05303 -91.3907,47.55845 7.55055,-17.50348 29.4176,-31.13367 4.51071,-2.79463 9.65881,-4.3636 14.70878,-5.83446 z"
       id="path12"
       style="clip-rule:evenodd;fill:#ff7800;fill-rule:evenodd;stroke:#000000;stroke-width:0.39194554;stroke-miterlimit:4;stroke-dasharray:none;stroke-opacity:1;image-rendering:optimizeQuality;shape-rendering:geometricPrecision;text-rendering:geometricPrecision"
       inkscape:connector-curvature="0" />
    <path
       class="fil2"
       d="m 255.73329,500.85873 c 6.12868,-5.58933 48.83324,-47.70555 20.88651,-13.48306 56.87403,14.07142 62.80659,4.31459 -10.05101,27.65254 -24.66176,7.89374 29.76082,-18.386 -3.03982,-11.86511 -9.90393,1.96118 3.08885,-9.65878 -7.79568,-2.30437 z"
       id="path14"
       style="clip-rule:evenodd;fill:#e83000;fill-rule:evenodd;stroke:#000000;stroke-width:0.39194554;stroke-miterlimit:4;stroke-dasharray:none;stroke-opacity:1;image-rendering:optimizeQuality;shape-rendering:geometricPrecision;text-rendering:geometricPrecision"
       inkscape:connector-curvature="0" />
    <path
       class="fil0"
       d="m 266.02946,515.61657 c 12.79667,-7.79566 17.94475,-7.45245 32.55549,-8.18789 -85.3601,57.70754 -53.7852,88.84116 -96.882,123.60296 10.8355,-32.11422 41.57689,-90.01786 64.32651,-115.41507 z"
       id="path16"
       style="clip-rule:evenodd;fill:#f76000;fill-rule:evenodd;stroke:#000000;stroke-width:0.39194554;stroke-miterlimit:4;stroke-dasharray:none;stroke-opacity:1;image-rendering:optimizeQuality;shape-rendering:geometricPrecision;text-rendering:geometricPrecision"
       inkscape:connector-curvature="0" />
    <path
       class="fil3"
       d="m 359.87161,437.1696 c -9.21752,-12.45343 13.82627,-16.42482 14.36557,-16.0816 -7.25632,12.79665 19.12145,15.83648 0.73545,35.00696 -9.80586,10.1981 -18.77822,-3.92236 -15.15005,-18.92536 z"
       id="path18"
       style="clip-rule:evenodd;fill:#ffe858;fill-rule:evenodd;stroke:#000000;stroke-width:0.39194554;stroke-miterlimit:4;stroke-dasharray:none;stroke-opacity:1;image-rendering:optimizeQuality;shape-rendering:geometricPrecision;text-rendering:geometricPrecision"
       inkscape:connector-curvature="0" />
    <path
       class="fil4"
       d="m 255.73329,500.85873 c 44.02837,-18.72921 -64.22843,100.26499 -10.54131,14.21851 3.23595,-5.24613 6.668,-9.51168 10.54131,-14.21851 z"
       id="path20"
       style="clip-rule:evenodd;fill:#d81000;fill-rule:evenodd;stroke:#000000;stroke-width:0.39194554;stroke-miterlimit:4;stroke-dasharray:none;stroke-opacity:1;image-rendering:optimizeQuality;shape-rendering:geometricPrecision;text-rendering:geometricPrecision"
       inkscape:connector-curvature="0" />
    <path
       class="fil5"
       d="m 352.12496,441.14099 c 21.81805,-9.16848 -10.19807,18.43504 23.5831,14.95397 -1.17668,5.39321 -41.3317,32.94773 -23.5831,5.8835 11.66897,-17.84667 -11.61995,7.79568 -11.57092,-2.84371 0.049,-12.30635 -14.90489,2.74564 11.57092,-17.99376 z"
       id="path22"
       style="clip-rule:evenodd;fill:#ffd840;fill-rule:evenodd;stroke:#000000;stroke-width:0.39194554;stroke-miterlimit:4;stroke-dasharray:none;stroke-opacity:1;image-rendering:optimizeQuality;shape-rendering:geometricPrecision;text-rendering:geometricPrecision"
       inkscape:connector-curvature="0" />
    <path
       class="fil6"
       d="m 352.17399,422.01956 c 26.62293,-8.18791 57.02114,-11.66899 37.6055,26.81905 -0.0491,-0.19612 1.42184,-49.02936 -24.66175,-25.29916 -3.23596,2.9908 -7.55053,25.05401 -18.53307,17.40542 -2.59854,-1.81409 4.16749,-15.6894 5.58932,-18.92531 z"
       id="path24"
       style="clip-rule:evenodd;fill:#fea828;fill-rule:evenodd;stroke:#000000;stroke-width:0.39194554;stroke-miterlimit:4;stroke-dasharray:none;stroke-opacity:1;image-rendering:optimizeQuality;shape-rendering:geometricPrecision;text-rendering:geometricPrecision"
       inkscape:connector-curvature="0" />
    <path
       class="fil7"
       d="m 375.11973,420.54865 c 35.44819,-2.99076 0.58833,43.44002 3.57913,25.74041 4.65779,-27.60352 -17.8957,-13.04178 -3.57913,-25.74041 z"
       id="path26"
       style="clip-rule:evenodd;fill:#fff8b0;fill-rule:evenodd;stroke:#000000;stroke-width:0.39194554;stroke-miterlimit:4;stroke-dasharray:none;stroke-opacity:1;image-rendering:optimizeQuality;shape-rendering:geometricPrecision;text-rendering:geometricPrecision"
       inkscape:connector-curvature="0" />
    <path
       class="fil6"
       d="m 325.60013,465.11635 c 27.11316,-28.63315 18.5821,9.56071 -18.48407,23.09283 0,-0.29419 17.01317,-20.98456 18.48407,-23.09283 z"
       id="path28"
       style="clip-rule:evenodd;fill:#fea828;fill-rule:evenodd;stroke:#000000;stroke-width:0.39194554;stroke-miterlimit:4;stroke-dasharray:none;stroke-opacity:1;image-rendering:optimizeQuality;shape-rendering:geometricPrecision;text-rendering:geometricPrecision"
       inkscape:connector-curvature="0" />
    <path
       class="fil8"
       d="m 375.4139,456.6833 c -0.83349,19.02338 20.05301,-8.87431 -1.37283,11.47288 -7.3544,7.01118 -43.34191,21.71998 -0.88252,-9.75686 0.73542,-0.53932 1.51989,-1.12769 2.25535,-1.71602 z"
       id="path30"
       style="clip-rule:evenodd;fill:#fe9018;fill-rule:evenodd;stroke:#000000;stroke-width:0.39194554;stroke-miterlimit:4;stroke-dasharray:none;stroke-opacity:1;image-rendering:optimizeQuality;shape-rendering:geometricPrecision;text-rendering:geometricPrecision"
       inkscape:connector-curvature="0" />
    <path
       class="fil9"
       d="m 323.98212,440.30749 c -26.52486,34.36957 -128.30978,142.23412 -40.35112,36.03658 12.40443,-14.95397 25.10301,-24.3676 40.35112,-36.03658 z"
       id="path32"
       style="clip-rule:evenodd;fill:#b01800;fill-rule:evenodd;stroke:#000000;stroke-width:0.39194554;stroke-miterlimit:4;stroke-dasharray:none;stroke-opacity:1;image-rendering:optimizeQuality;shape-rendering:geometricPrecision;text-rendering:geometricPrecision"
       inkscape:connector-curvature="0" />
    <path
       class="fil2"
       d="m 210.67532,590.5334 c 48.68615,-101.24556 -24.26952,73.15178 0,0 z"
       id="path34"
       style="clip-rule:evenodd;fill:#e83000;fill-rule:evenodd;stroke:#000000;stroke-width:0.39194554;stroke-miterlimit:4;stroke-dasharray:none;stroke-opacity:1;image-rendering:optimizeQuality;shape-rendering:geometricPrecision;text-rendering:geometricPrecision"
       inkscape:connector-curvature="0" />
    <path
       class="fil10"
       d="m 375.4139,456.6833 c 19.46463,-39.76282 15.83646,16.8661 -0.14709,8.33499 -1.81408,-0.98059 -0.24515,-6.66801 0.14709,-8.33499 z"
       id="path36"
       style="clip-rule:evenodd;fill:#ffd078;fill-rule:evenodd;stroke:#000000;stroke-width:0.39194554;stroke-miterlimit:4;stroke-dasharray:none;stroke-opacity:1;image-rendering:optimizeQuality;shape-rendering:geometricPrecision;text-rendering:geometricPrecision"
       inkscape:connector-curvature="0" />
    <path
       class="fil8"
       d="m 342.51522,464.47897 c 0.0981,-9.56072 25.05398,-12.89471 -0.63736,11.32576 -3.18694,-1.17668 -0.9806,-8.82526 0.63736,-11.32576 z"
       id="path38"
       style="clip-rule:evenodd;fill:#fe9018;fill-rule:evenodd;stroke:#000000;stroke-width:0.39194554;stroke-miterlimit:4;stroke-dasharray:none;stroke-opacity:1;image-rendering:optimizeQuality;shape-rendering:geometricPrecision;text-rendering:geometricPrecision"
       inkscape:connector-curvature="0" />
    <path
       class="fil0"
       d="m 217.83361,676.87407 c 1.51991,17.06221 19.36659,126.88797 8.33498,41.28273 -7.89372,-61.23763 -2.89272,-84.86984 14.75785,-143.50892 -40.44921,137.38025 -1.51992,283.24254 130.46704,351.93266 69.2785,36.08564 134.87974,33.7322 206.11939,5.49135 -21.47486,5.88349 -38.24288,11.32576 -60.55123,14.65974 C 646.84039,917.1179 744.99713,822.98155 730.87667,683.24789 720.43344,579.99206 652.91999,520.61754 561.03898,484.82613 c 114.48355,27.45641 171.94593,122.96559 171.35761,236.61562 -0.34321,67.51343 -0.34321,-99.87279 4.06942,-25.05399 18.38599,311.43444 -496.4221,380.90904 -518.58336,-19.51369 z"
       id="path40"
       style="clip-rule:evenodd;fill:#f76000;fill-rule:evenodd;stroke:#000000;stroke-width:0.39194554;stroke-miterlimit:4;stroke-dasharray:none;stroke-opacity:1;image-rendering:optimizeQuality;shape-rendering:geometricPrecision;text-rendering:geometricPrecision"
       inkscape:connector-curvature="0" />
    <path
       class="fil2"
       d="m 216.46078,631.37485 c 25.93654,-59.08037 0.98059,0.53933 0.68641,45.156 -1.17669,175.23091 138.704,298.6868 308.24748,275.39788 129.87876,-17.84665 198.91209,-117.57238 211.07134,-241.22442 -5.54031,311.38539 -482.49776,347.96139 -520.88775,-3.97136 -2.99079,-27.65252 -2.0102,-47.90164 0.8335,-75.3581 z"
       id="path42"
       style="clip-rule:evenodd;fill:#e83000;fill-rule:evenodd;stroke:#000000;stroke-width:0.39194554;stroke-miterlimit:4;stroke-dasharray:none;stroke-opacity:1;image-rendering:optimizeQuality;shape-rendering:geometricPrecision;text-rendering:geometricPrecision"
       inkscape:connector-curvature="0" />
    <path
       class="fil0"
       d="m 382.62122,940.06366 c -18.14086,-11.17877 50.05895,13.18887 62.31631,14.9049 142.52829,20.05302 244.41129,-60.9925 287.11585,-193.42078 -37.65455,153.31476 -176.75079,227.93738 -325.60391,192.048 -72.66145,-17.50351 -147.48023,-71.23972 -172.33811,-143.65605 -2.05923,-6.03058 34.02637,48.5391 44.91088,60.30609 31.52586,34.07544 61.67889,51.48086 103.59898,69.81784 z"
       id="path44"
       style="clip-rule:evenodd;fill:#f76000;fill-rule:evenodd;stroke:#000000;stroke-width:0.39194554;stroke-miterlimit:4;stroke-dasharray:none;stroke-opacity:1;image-rendering:optimizeQuality;shape-rendering:geometricPrecision;text-rendering:geometricPrecision"
       inkscape:connector-curvature="0" />
    <path
       class="fil3"
       d="M 251.27163,790.62216 C 213.71514,682.02214 217.44137,594.35769 291.42667,501.7903 324.17823,460.8508 268.08871,537.38556 260.73429,551.1138 128.64923,798.90814 428.12045,1070.1875 647.33067,880.05171 673.36525,857.44919 738.6233,747.0351 694.59495,826.46264 599.18383,998.75174 358.89102,978.45356 259.9008,805.77226 l -8.67821,-15.1501 z"
       id="path46"
       style="clip-rule:evenodd;fill:#ffe858;fill-rule:evenodd;stroke:#000000;stroke-width:0.39194554;stroke-miterlimit:4;stroke-dasharray:none;stroke-opacity:1;image-rendering:optimizeQuality;shape-rendering:geometricPrecision;text-rendering:geometricPrecision"
       inkscape:connector-curvature="0" />
    <path
       class="fil4"
       d="m 216.46078,631.37485 c -10.49227,135.12488 10.63938,150.56916 83.6931,253.6288 0.4903,0.68648 -77.76054,-57.6585 -93.84217,-178.41779 -2.69661,-20.15107 -3.97137,-59.03134 10.19811,-75.26003 z"
       id="path48"
       style="clip-rule:evenodd;fill:#d81000;fill-rule:evenodd;stroke:#000000;stroke-width:0.39194554;stroke-miterlimit:4;stroke-dasharray:none;stroke-opacity:1;image-rendering:optimizeQuality;shape-rendering:geometricPrecision;text-rendering:geometricPrecision"
       inkscape:connector-curvature="0" />
    <path
       class="fil5"
       d="m 245.73131,779.93378 c 82.07511,148.75503 237.74325,225.92722 386.59639,116.5428 37.01715,-27.21132 54.9619,-57.46245 76.63286,-96.73497 -60.30612,177.6824 -353.50162,210.38489 -449.64812,8.67824 l -13.58113,-28.48607 z"
       id="path50"
       style="clip-rule:evenodd;fill:#ffd840;fill-rule:evenodd;stroke:#000000;stroke-width:0.39194554;stroke-miterlimit:4;stroke-dasharray:none;stroke-opacity:1;image-rendering:optimizeQuality;shape-rendering:geometricPrecision;text-rendering:geometricPrecision"
       inkscape:connector-curvature="0" />
    <path
       class="fil7"
       d="M 253.52698,564.89106 C 201.21266,727.1782 253.18377,890.88723 430.42483,934.71938 536.13213,960.85206 617.86404,911.96979 685.47551,834.7486 625.75775,945.99625 447.73221,972.66814 342.51522,900.44796 231.07154,823.96213 211.01854,686.53284 253.52698,564.94007 Z"
       id="path52"
       style="clip-rule:evenodd;fill:#fff8b0;fill-rule:evenodd;stroke:#000000;stroke-width:0.39194554;stroke-miterlimit:4;stroke-dasharray:none;stroke-opacity:1;image-rendering:optimizeQuality;shape-rendering:geometricPrecision;text-rendering:geometricPrecision"
       inkscape:connector-curvature="0" />
    <path
       class="fil6"
       d="m 340.01474,904.90958 c -35.05599,-28.43702 -47.36233,-41.03758 -73.64208,-77.90763 89.87077,116.19953 185.87026,146.15652 325.30969,97.5684 -88.74311,47.85263 -168.90611,31.37877 -251.66761,-19.66077 z"
       id="path54"
       style="clip-rule:evenodd;fill:#fea828;fill-rule:evenodd;stroke:#000000;stroke-width:0.39194554;stroke-miterlimit:4;stroke-dasharray:none;stroke-opacity:1;image-rendering:optimizeQuality;shape-rendering:geometricPrecision;text-rendering:geometricPrecision"
       inkscape:connector-curvature="0" />
    <path
       class="fil8"
       d="m 712.19649,788.95518 c 30.54528,-100.85335 15.1991,-169.20031 -53.93225,-248.97106 61.82595,39.66477 94.33244,168.75902 60.79635,235.34091 l -6.8641,13.63015 z"
       id="path56"
       style="clip-rule:evenodd;fill:#fe9018;fill-rule:evenodd;stroke:#000000;stroke-width:0.39194554;stroke-miterlimit:4;stroke-dasharray:none;stroke-opacity:1;image-rendering:optimizeQuality;shape-rendering:geometricPrecision;text-rendering:geometricPrecision"
       inkscape:connector-curvature="0" />
    <path
       class="fil9"
       d="m 202.58549,651.08464 c -4.75585,48.53905 -2.25536,61.777 8.38402,108.84514 -15.93454,-63.98327 -28.68218,-127.67238 5.05002,-187.83143 -4.41265,28.28993 -10.73743,49.51963 -13.43404,78.98629 z"
       id="path58"
       style="clip-rule:evenodd;fill:#b01800;fill-rule:evenodd;stroke:#000000;stroke-width:0.39194554;stroke-miterlimit:4;stroke-dasharray:none;stroke-opacity:1;image-rendering:optimizeQuality;shape-rendering:geometricPrecision;text-rendering:geometricPrecision"
       inkscape:connector-curvature="0" />
    <path
       class="fil2"
       d="m 202.58549,651.08464 c 1.22573,60.01192 5.05002,79.62366 24.71078,136.10549 11.57093,33.2419 -15.1991,-24.71079 -20.2491,-52.95173 -5.4913,-30.59429 -5.19712,-52.41235 -4.41266,-83.15376 z"
       id="path60"
       style="clip-rule:evenodd;fill:#e83000;fill-rule:evenodd;stroke:#000000;stroke-width:0.39194554;stroke-miterlimit:4;stroke-dasharray:none;stroke-opacity:1;image-rendering:optimizeQuality;shape-rendering:geometricPrecision;text-rendering:geometricPrecision"
       inkscape:connector-curvature="0" />
    <path
       class="fil10"
       d="m 712.19649,788.95518 c -23.09282,32.31036 -20.44525,42.01816 -50.25507,73.39695 -65.89548,69.32752 34.81083,-16.8661 54.27546,-91.29268 14.75784,-56.38375 -3.08882,-174.98574 8.38402,-92.95964 7.06026,50.40217 3.28499,62.12018 -12.35538,110.85537 z"
       id="path62"
       style="clip-rule:evenodd;fill:#ffd078;fill-rule:evenodd;stroke:#000000;stroke-width:0.39194554;stroke-miterlimit:4;stroke-dasharray:none;stroke-opacity:1;image-rendering:optimizeQuality;shape-rendering:geometricPrecision;text-rendering:geometricPrecision"
       inkscape:connector-curvature="0" />
    <path
       class="fil8"
       d="m 527.55197,944.57437 c -19.80786,2.01019 -132.96759,1.9611 -46.87205,2.01019 87.51738,0.049 139.43944,-31.08461 199.01011,-91.97914 -28.19189,51.87312 -97.86255,75.9956 -152.13806,89.96895 z"
       id="path64"
       style="clip-rule:evenodd;fill:#fe9018;fill-rule:evenodd;stroke:#000000;stroke-width:0.39194554;stroke-miterlimit:4;stroke-dasharray:none;stroke-opacity:1;image-rendering:optimizeQuality;shape-rendering:geometricPrecision;text-rendering:geometricPrecision"
       inkscape:connector-curvature="0" />
    <g
       id="_862923664"
       style="clip-rule:evenodd;fill-rule:evenodd;stroke:#000000;stroke-width:7.99410152;stroke-miterlimit:4;stroke-dasharray:none;stroke-opacity:1;image-rendering:optimizeQuality;shape-rendering:geometricPrecision;text-rendering:geometricPrecision"
       transform="matrix(0.04902934,0,0,0.04902934,-18.585908,-9.3896578)">
      <path
         class="fil0"
         d="m 9947,12949 c 22,-421 49,-528 22,-986 l -89,-60 c 17,-202 15,-123 80,-68 96,81 -6,124 123,112 27,-183 27,3 15,-236 73,325 90,330 70,928 53,-153 29,90 73,-299 32,-287 -7,-817 -16,-1132 20,167 7,-12 69,130 l 34,98 c 73,-121 -7,67 32,-219 l 7,-179 c 148,-2 83,-171 208,-360 30,484 9,907 -21,1308 l -26,-479 c -19,-165 33,-120 -60,-181 -89,498 61,803 -33,1218 l -17,-257 c -6,340 3,127 -20,284 -2,16 -6,36 -9,51 l -148,365 c -289,396 -118,165 -242,429 -40,-286 -25,-577 -42,-399 -1,14 -5,-47 -8,-68 z"
         id="path67"
         style="fill:#f76000;stroke:#000000;stroke-width:7.99410152;stroke-miterlimit:4;stroke-dasharray:none;stroke-opacity:1"
         inkscape:connector-curvature="0" />
      <path
         class="fil1"
         d="m 9764,10373 c 41,72 43,97 80,209 l 22,67 c 2,7 8,18 10,25 30,92 1,-236 36,165 136,-451 28,-242 81,-222 72,27 1,39 21,-5 l 29,627 c 17,232 29,310 54,472 12,239 12,52 -15,236 -129,12 -27,-31 -123,-112 -65,-54 -63,-134 -80,68 -90,513 152,1318 -21,1578 47,-731 -88,-786 -140,-1435 -38,-478 -24,-1324 46,-1673 z"
         id="path69"
         style="fill:#ff7800;stroke:#000000;stroke-width:7.99410152;stroke-miterlimit:4;stroke-dasharray:none;stroke-opacity:1"
         inkscape:connector-curvature="0" />
      <path
         class="fil2"
         d="m 9961,14167 c -17,-96 -13,-29 -24,-210 -10,-158 -10,-184 -10,-350 0,-203 12,-491 20,-658 4,21 7,82 8,68 17,-178 2,113 42,399 125,-264 -47,-33 242,-429 l 148,-365 c 3,-14 7,-35 9,-51 23,-157 13,56 20,-284 l 17,257 c -8,438 -129,945 -186,1406 -39,45 -54,-227 -25,193 -41,328 1,48 -43,191 l -37,-172 c -10,-127 -12,-171 -16,-382 -89,157 -76,-240 -111,369 -53,-98 -28,-271 -55,18 z"
         id="path71"
         style="fill:#e83000;stroke:#000000;stroke-width:7.99410152;stroke-miterlimit:4;stroke-dasharray:none;stroke-opacity:1"
         inkscape:connector-curvature="0" />
      <path
         class="fil0"
         d="m 10223,14143 c -29,-421 -14,-149 25,-193 32,-68 15,-9 47,-160 52,-243 23,-252 128,-636 -20,397 -85,792 -86,1191 -2,567 85,558 34,1175 -27,-507 17,-342 -76,-349 -41,494 139,954 8,1808 -7,-1083 -36,-603 -98,-1326 -54,-637 15,-998 18,-1510 z"
         id="path73"
         style="fill:#f76000;stroke:#000000;stroke-width:7.99410152;stroke-miterlimit:4;stroke-dasharray:none;stroke-opacity:1"
         inkscape:connector-curvature="0" />
      <path
         class="fil3"
         d="m 10030,10335 -110,98 c 6,-843 -9,-47 -39,-566 l 64,-179 c 26,322 -3,52 34,214 113,-300 263,-130 386,58 l 0,93 9,431 c -63,0 -126,7 -188,6 -117,-2 -85,33 -158,-155 z"
         id="path75"
         style="fill:#ffe858;stroke:#000000;stroke-width:7.99410152;stroke-miterlimit:4;stroke-dasharray:none;stroke-opacity:1"
         inkscape:connector-curvature="0" />
      <path
         class="fil4"
         d="m 9961,14167 c 27,-289 3,-116 55,-18 35,-609 22,-212 111,-369 4,211 6,256 16,382 l 37,172 -39,1127 c -69,-154 -65,-211 -115,-512 -49,-297 -71,-403 -66,-782 z"
         id="path77"
         style="fill:#d81000;stroke:#000000;stroke-width:7.99410152;stroke-miterlimit:4;stroke-dasharray:none;stroke-opacity:1"
         inkscape:connector-curvature="0" />
      <path
         class="fil5"
         d="m 10014,10611 16,-276 c 72,188 40,153 158,155 62,1 126,-6 188,-6 l -9,-431 35,61 c 11,397 -10,583 -35,925 l -7,179 c -88,71 -25,-96 -80,-455 l -71,52 -18,449 c -4,-9 -9,-25 -11,-29 l -64,-97 c -56,-7 -35,-1 -72,101 l -29,-627 z"
         id="path79"
         style="fill:#ffd840;stroke:#000000;stroke-width:7.99410152;stroke-miterlimit:4;stroke-dasharray:none;stroke-opacity:1"
         inkscape:connector-curvature="0" />
      <path
         class="fil6"
         d="m 9764,10373 c 30,-412 178,-1030 242,-1105 64,-75 147,-127 244,-47 104,87 103,169 178,423 -38,-47 -53,-72 -88,-140 -136,-220 -299,-385 -394,184 l -64,179 c 30,519 44,-277 39,566 l 110,-98 -16,276 c -20,43 51,32 -21,5 -53,-20 55,-229 -81,222 -35,-401 -5,-73 -36,-165 -2,-7 -8,-18 -10,-25 l -22,-67 c -37,-112 -39,-137 -80,-209 z"
         id="path81"
         style="fill:#fea828;stroke:#000000;stroke-width:7.99410152;stroke-miterlimit:4;stroke-dasharray:none;stroke-opacity:1"
         inkscape:connector-curvature="0" />
      <path
         class="fil7"
         d="m 9946,9688 c 95,-569 259,-404 394,-184 l 26,456 c -123,-187 -273,-358 -386,-58 -37,-162 -8,107 -34,-214 z"
         id="path83"
         style="fill:#fff8b0;stroke:#000000;stroke-width:7.99410152;stroke-miterlimit:4;stroke-dasharray:none;stroke-opacity:1"
         inkscape:connector-curvature="0" />
      <path
         class="fil6"
         d="m 10098,11711 c -25,-162 -38,-240 -54,-472 37,-102 16,-109 72,-101 l 64,97 c 2,4 7,20 11,29 l 35,-55 c 9,315 49,845 16,1132 -44,389 -20,146 -73,299 20,-598 3,-603 -70,-928 z"
         id="path85"
         style="fill:#fea828;stroke:#000000;stroke-width:7.99410152;stroke-miterlimit:4;stroke-dasharray:none;stroke-opacity:1"
         inkscape:connector-curvature="0" />
      <path
         class="fil8"
         d="m 10402,10114 c 36,78 51,115 90,186 l -20,-416 103,795 c -125,189 -60,358 -208,360 25,-342 45,-528 35,-925 z"
         id="path87"
         style="fill:#fe9018;stroke:#000000;stroke-width:7.99410152;stroke-miterlimit:4;stroke-dasharray:none;stroke-opacity:1"
         inkscape:connector-curvature="0" />
      <path
         class="fil9"
         d="m 10142,16410 51,316 65,4 c -8,532 3,603 41,1043 -45,-100 -38,-71 -79,-243 -83,-347 -98,-624 -77,-1120 z"
         id="path89"
         style="fill:#b01800;stroke:#000000;stroke-width:7.99410152;stroke-miterlimit:4;stroke-dasharray:none;stroke-opacity:1"
         inkscape:connector-curvature="0" />
      <path
         class="fil2"
         d="m 10142,16410 -27,-845 c 86,190 138,562 143,1165 l -65,-4 -51,-316 z"
         id="path91"
         style="fill:#e83000;stroke:#000000;stroke-width:7.99410152;stroke-miterlimit:4;stroke-dasharray:none;stroke-opacity:1"
         inkscape:connector-curvature="0" />
      <path
         class="fil10"
         d="m 10402,10114 -35,-61 0,-93 -26,-456 c 35,68 51,93 88,140 l 38,89 c 37,0 24,-22 6,151 l 20,416 c -39,-71 -54,-108 -90,-186 z"
         id="path93"
         style="fill:#ffd078;stroke:#000000;stroke-width:7.99410152;stroke-miterlimit:4;stroke-dasharray:none;stroke-opacity:1"
         inkscape:connector-curvature="0" />
      <path
         class="fil8"
         d="m 10224,11208 -35,55 18,-449 71,-52 c 55,360 -7,527 80,455 -39,285 41,98 -32,219 l -34,-98 c -62,-141 -49,37 -69,-130 z"
         id="path95"
         style="fill:#fe9018;stroke:#000000;stroke-width:7.99410152;stroke-miterlimit:4;stroke-dasharray:none;stroke-opacity:1"
         inkscape:connector-curvature="0" />
    </g>
  </g>
</svg>
